<svg xmlns="http://www.w3.org/2000/svg" width="1000" height="1000" viewBox="0 0 1000 1000">
  <defs>
    <style>
      .cls-1 {
        fill: #ebebeb;
        stroke: #363636;
        stroke-width: 4.68px;
      }

      .cls-2 {
        fill: #464646;
        stroke: #000;
        stroke-width: 1px;
        fill-rule: evenodd;
      }
    </style>
  </defs>
  <ellipse class="cls-1" cx="501" cy="499.5" rx="481" ry="483.5"/>
  <path id="Rounded_Rectangle_1" data-name="Rounded Rectangle 1" class="cls-2" d="M167.06,224.657l212.334,71.928a10.259,10.259,0,0,1,6.434,13.019L322.015,497.2a10.291,10.291,0,0,1-13.047,6.42L96.634,431.687A102.6,102.6,0,0,1,32.3,301.5l4.3-12.636A102.91,102.91,0,0,1,167.06,224.657Z"/>
  <path class="cls-2" d="M603.414,444.437l194.5-82.9c9.043-3.855,17.636-2.349,14.187,4.228-2.759,5.27-58.761,110.941-63.556,119.966-3.151,5.928-14.634,10.745-21.07,8.98C720.3,492.743,604.74,459.884,596.624,457.4,590.675,455.578,593.452,448.683,603.414,444.437Z"/>
  <path id="Shape_3_copy" data-name="Shape 3 copy" class="cls-2" d="M398.149,711H609.583c9.83,0,17.144,4.754,11.393,9.452-4.605,3.766-97.555,79.017-105.5,85.44-5.223,4.218-17.675,4.147-22.9,0-5.83-4.623-99.255-80.162-105.745-85.632C382.062,716.252,387.32,711,398.149,711Z"/>
  <path id="Shape_3_copy_2" data-name="Shape 3 copy 2" class="cls-2" d="M584.778,619H418.608c-7.726,0-13.475-3.736-8.955-7.427,3.619-2.959,76.671-62.085,82.919-67.131,4.105-3.315,13.891-3.259,18,0,4.583,3.632,78.007,62.984,83.108,67.282C597.421,614.873,593.288,619,584.778,619Z"/>
</svg>
